<svg xmlns="http://www.w3.org/2000/svg" height="20px" viewBox="0 -960 960 960" width="20px" fill="#1f1f1f"><path d="M378-522q-42-42-42-102t42-102q42-42 102-42t102 42q42 42 42 102t-42 102q-42 42-102 42t-102-42ZM192-192v-96q0-23 12.5-43.5T239-366q55-32 116.29-49 61.29-17 124.5-17t124.71 17Q666-398 721-366q22 13 34.5 34t12.5 44v96H192Zm72-72h432v-24q0-5.18-3.03-9.41-3.02-4.24-7.97-6.59-46-28-98-42t-107-14q-55 0-107 14t-98 42q-5 4-8 7.72-3 3.73-3 8.28v24Zm267-309.21q21-21.21 21-51T530.79-675q-21.21-21-51-21T429-674.79q-21 21.21-21 51T429.21-573q21.21 21 51 21T531-573.21ZM480-624Zm0 360Z"/></svg>