<svg xmlns="http://www.w3.org/2000/svg" height="20px" viewBox="0 -960 960 960" width="20px" fill="#1f1f1f"><path d="M138-186q-42-42-42-102t42-102q42-42 102-42t102 42q42 42 42 102t-42 102q-42 42-102 42t-102-42Zm480 0q-42-42-42-102t42-102q42-42 102-42t102 42q42 42 42 102t-42 102q-42 42-102 42t-102-42Zm-327-51.21q21-21.21 21-51T290.79-339q-21.21-21-51-21T189-338.79q-21 21.21-21 51T189.21-237q21.21 21 51 21T291-237.21Zm480 0q21-21.21 21-51T770.79-339q-21.21-21-51-21T669-338.79q-21 21.21-21 51T669.21-237q21.21 21 51 21T771-237.21ZM378-570q-42-42-42-102t42-102q42-42 102-42t102 42q42 42 42 102t-42 102q-42 42-102 42t-102-42Zm153-51.21q21-21.21 21-51T530.79-723q-21.21-21-51-21T429-722.79q-21 21.21-21 51T429.21-621q21.21 21 51 21T531-621.21ZM480-672Zm240 384Zm-480 0Z"/></svg>